<?xml version="1.0" encoding="utf-8"?>
<!-- Generator: Adobe Illustrator 27.4.1, SVG Export Plug-In . SVG Version: 6.00 Build 0)  -->
<svg version="1.1" id="Ebene_2_Kopie" xmlns="http://www.w3.org/2000/svg" xmlns:xlink="http://www.w3.org/1999/xlink" x="0px"
	 y="0px" viewBox="0 0 18.5 18.3" style="enable-background:new 0 0 18.5 18.3;" xml:space="preserve">
<style type="text/css">
	.st0{fill:#FFFFFF;}
	.st1{fill:#1D1D1B;}
</style>
<polygon class="st0" points="0,0 18.5,5.6 14.2,10 18.2,13.7 14.8,17.2 10.9,13.5 6.7,18.3 "/>
<g>
	<path class="st1" d="M4.2,3.1C5,4.2,5.7,5.4,6.5,6.4L6.4,1.9L2.8,0.8C3.2,1.6,3.7,2.3,4.2,3.1z"/>
	<polygon class="st1" points="10.7,3.2 13,9.4 17.2,5.2 	"/>
	<polygon class="st1" points="9.7,2.9 8.2,2.5 13.6,16.1 14.8,17.2 15,17.1 	"/>
	<polygon class="st1" points="13.7,11.2 15.7,16.4 17.3,14.6 	"/>
	<polygon class="st1" points="13.7,10 17.9,14 18.2,13.7 14.2,10 14.3,10 18.5,5.6 18.1,5.4 	"/>
	<path class="st1" d="M12.2,14.8L7.3,2.3L7.4,9L6.6,8c-1-1.3-2.1-2.9-3.1-4.5C3.1,2.9,2.7,2.3,2.3,1.7l5.7,15.2l2.9-3.3l0,0
		L12.2,14.8L12.2,14.8z"/>
	<polygon class="st1" points="7.3,17.6 0.8,0.3 0,0 6.7,18.3 	"/>
</g>
</svg>
