<?xml version="1.0" encoding="UTF-8"?>
<svg id="a" data-name="Modo de aislamiento" xmlns="http://www.w3.org/2000/svg" viewBox="0 0 653.72 2004.91">
  <defs>
    <style>
      .b {
        fill: #632314;
      }

      .c {
        fill: #3966af;
      }

      .d {
        fill: #f2f7fd;
      }

      .e {
        fill: #ef8c75;
      }

      .f {
        fill: #3866af;
      }

      .g {
        fill: #f2d5c7;
      }

      .h {
        fill: #a2a070;
      }

      .i {
        fill: #0c0c0c;
      }
    </style>
  </defs>
  <path class="e" d="M252.74,1859.8c13.91,9.65,32.42,9.82,48.96,6.19,16.54-3.63,32.19-10.61,48.74-14.19,1.69-.36,3.5-.65,5.28-.72-1.51-8.65-2.81-17.34-3.63-26.76-.14-1.64-.9-8.54-1.9-17.1-36.47,2.68-84.12,7.69-121.5,6.58.64,10.8,1.53,21.58,2.66,32.34,2.73.51,5.41,1.65,7.77,3.1,4.89,3.02,8.9,7.28,13.63,10.55Z"/>
  <path class="b" d="M290.7,1982.8c.28-.41.6-.8.98-1.15-.97-.52-1.43-1.69-1.02-2.75,6.04-15.41,21.08-23.21,35.62-30.74,4.91-2.55,9.99-5.18,14.58-8.05,12.66-7.91,25.51-16.92,34.8-31.77-2.33-15.9-5.21-31.54-8.48-47.46-.05-.22-.09-.45-.14-.67-.45-2.14-1.02-4.32-2.41-5.99-2.13-2.57-5.47-3.26-8.92-3.13-1.78.07-3.6.35-5.28.72-16.55,3.58-32.2,10.56-48.74,14.19-16.54,3.63-35.05,3.47-48.96-6.19-4.72-3.28-8.74-7.53-13.63-10.55-2.36-1.45-5.04-2.59-7.77-3.1-2.94-.55-5.93-.39-8.61.9-5.19,2.48-7.77,8.27-9.89,13.62-7.17,18.11-13.74,36.65-23.83,53.41-10.03,16.66-28.16,24.09-43.87,34.91-13.54,9.33-33.11,17.33-39.3,32.56,22.58,3.6,45.42,4.02,68.2,4.98,39.15,1.04,77.89-1.19,116.66-3.74Z"/>
  <path class="e" d="M414.22,1806.68c.65,13.18,1.67,26.34,3.05,39.46,2.73.51,5.41,1.65,7.77,3.1,4.89,3.02,8.91,7.28,13.63,10.55,13.91,9.65,32.42,9.82,48.95,6.19,16.54-3.63,32.19-10.61,48.74-14.19,1.69-.36,3.5-.65,5.29-.72-1.52-8.65-2.82-17.34-3.63-26.76-.15-1.7-.96-9.03-2.01-18-38.25.71-103.05,1.44-121.78.36Z"/>
  <path class="b" d="M487.62,1865.99c-16.54,3.63-35.05,3.47-48.95-6.19-4.72-3.28-8.74-7.53-13.63-10.55-2.36-1.45-5.04-2.59-7.77-3.1-2.94-.55-5.93-.39-8.61.9-5.19,2.48-7.77,8.27-9.89,13.62-4.22,10.68-8.26,21.49-12.91,32.01.97.51,1.45,1.66,1.06,2.72-9.37,25.37-26.73,37.85-43.7,48.46-4.74,2.96-9.9,5.64-14.89,8.22-14.45,7.49-28.11,14.57-33.54,28.43-.25.63-.75,1.07-1.34,1.27,22.04,3.36,44.32,3.81,66.54,4.75,50.53,1.34,100.38-2.76,150.46-5.96,19.5-1.24,39.03-2.35,58.66-2.94-.33,0-4.41-45.11-4.75-48.12-2.6-23.4-6.52-45.72-11.23-68.64-.05-.22-.09-.45-.14-.67-.45-2.14-1.02-4.32-2.41-5.99-2.13-2.57-5.47-3.26-8.92-3.13-1.79.07-3.6.35-5.29.72-16.55,3.58-32.2,10.56-48.74,14.19Z"/>
  <path class="b" d="M650.95,441.78c-8.92-23.21-38.2-33.82-46.62-57.22-9.28-25.77,10.87-53.03,10.05-80.4-.75-25.12-19.1-46.36-39.44-61.12-20.34-14.76-43.66-25.45-62.26-42.34-52.91-48.06-57.49-136.03-115.11-178.33-27.18-19.96-63.13-26.22-96.3-20.15-33.17,6.07-63.56,23.74-88,46.97-19.47,18.51-35.83,41.33-41.92,67.5-8.89,38.19,4.8,77.47,14.71,115.41,9.94,38.07,16.16,77.95,9.61,116.74-2.12,12.58-5.56,24.87-9.02,37.16-.31-4.06-.84-12.45-1.94-12.62-.58-.09-1.16-.19-1.74-.28.01.58-.11,1.15-.41,1.66-.84,1.41-2.34,1.75-3.07,1.92-18.16,4.18-36.79,5.03-55.2,5.03-6.37,0-12.7-.1-18.99-.2-8.63-.14-18.4-.29-27.26-3.55-.03-.01-.05-.03-.08-.04-.13.09-.27.17-.39.26-1.81,1.27-2.92,3.15-3.25,5.32-.4,2.63.22,5.29.84,7.88,1.14.25,2.28.46,3.43.64,1.75.28,3.51.49,5.28.64,6.11-2.18,12.18-4.12,18.07-5.73,1.17-.32,2.39.37,2.72,1.55.08.3.1.6.06.89.09-.01.19-.02.28-.03.51,1.27.8,2.6.91,3.95,24.32.07,48.64-1.38,72.78-4.3,2.47-.3,4.93-.6,7.39-.92-.07.27-.15.53-.23.8.37-.15.73-.32,1.1-.46.21.7.37,1.44.49,2.19,7.7-1.17,15.28-2.76,22.45-5.77,21.82-9.16,36.3-29.63,53.32-46.07,12.55-12.11,25.61-19.77,41.84-23.13,2.9-8.33,5.34-16.83,6.9-25.54,2.83-15.58,3.34-31.2,2.49-46.91-9.54,7.85-20.68,13.75-32.61,17.01-2.56.7-5.58,1.37-8.66,1.37-2.14,0-4.31-.32-6.38-1.18-1.13-.47-1.66-1.76-1.2-2.89.07-.17.17-.33.28-.47-1.23-.92-2.33-2.04-3.38-3.16-12.78-13.67-23.24-29.51-30.85-46.6-2.22-4.98-3.85-10.07-5.23-15.21-.15-.06-.31-.09-.45-.16-1.1-.54-1.55-1.86-1.01-2.96.12-.25.29-.46.49-.64-2.23-9-3.92-18.08-6.76-26.97-.77.4-1.49.89-2.08,1.5-.43.45-1.01.68-1.59.68s-1.11-.2-1.53-.62c-.88-.85-.91-2.25-.06-3.13,1.09-1.13,2.39-2.03,3.8-2.67-.33-.9-.67-1.79-1.03-2.68-2.89-7.08-6.67-13.81-8.83-21.14-2.1-7.13-2.59-14.65-2.29-22.07.05-1.15.07-2.3.09-3.43-.4.39-.94.64-1.53.64-.06,0-.12,0-.19,0-1.22-.1-2.12-1.17-2.02-2.39.95-11.25,12.56-50.06,121.94-77.01,1.19-.3,2.38.43,2.67,1.62.29,1.19-.43,2.38-1.62,2.68-82.66,20.36-107.9,46.8-115.48,62.54,16.66.15,33.7,3.63,47.33,13.15,5.77,4.03,10.78,9.02,16.27,13.42,11.12,8.91,24.12,15.21,37.69,19.42,2.55.79,26.82,6.43,36.48,8,2.84-6.43,8.87-11.25,15.78-12.33,8.05-1.27,16.42,2.73,20.36,9.72,1.3,2.31,2.21,5.03,2.77,8.3,2.94,17.19-7.32,35.99-23.37,42.81-.73.31-1.54.61-2.4.87.56,32.93,4.95,65.8,13.06,97.72,1.25,4.94,2.35,9.75,3.06,14.66,1.54-2.4,27.06,16.24,43.74,28.96.28-.38.68-.68,1.18-.82,1.18-.33,2.4.36,2.72,1.54.24.88.48,1.83.71,2.82,4.92,3.8,8.48,6.65,9.42,7.5,16.65,15.01,31.28,32.26,43.38,51.14,11.62,18.14,17.5,39.11,28.5,57.16,13.41,22.01,22.3,46.37,31.11,70.68,21.32,58.82,40.25,122.59,38.82,184.02,15.71-9.91,27.79-25.23,39.27-40.1,11.82-15.31,24.09-31.69,26.22-50.92,3.07-27.71-15.68-54.1-13.85-81.92,2.29-34.9,36.33-67.16,23.78-99.81Z"/>
  <path class="b" d="M292.61,251.61c.32-.15.65-.29.97-.44-.32.15-.65.3-.97.44Z"/>
  <path class="c" d="M339.93,1413.02c-15.55-95.06-28.24-172.6-40.22-241.81,13.22,116.04,40.13,352.33,57.69,507.47,8.87.52,17.73,1.05,26.59,1.54-17.36-103.99-31.8-192.23-44.06-267.2Z"/>
  <path class="c" d="M202,643.09c-3.15-1.95-6.17-4.32-8.4-7.48-3.91-5.55-5.22-12.87-4.14-23.04,1.08-10.12,3.78-20.17,6.39-29.9,4.3-16.01,8.36-31.13,5.91-46.66-1.02-6.48-3.24-12.9-5.37-19.1-1.65-4.77-3.35-9.71-4.55-14.74-3.96-16.64-2.38-34.45,4.45-50.13,7.25-16.64,19.87-30.12,32.07-43.15l1.72-1.83c7.63-8.17,13.71-14.79,19.01-20.75,5.76-6.78,11.52-13.55,17.27-20.33,6.52-8.05,13.33-16.87,22.73-29.03l2.56-3.32c.75-.97,2.14-1.14,3.1-.4.29.22.5.51.65.82,3.78-5.71,7.36-11.86,9.56-18.16.03-.08.06-.17.09-.25-16.24,3.36-29.29,11.02-41.84,23.13-17.03,16.43-31.51,36.91-53.32,46.07-7.17,3.01-14.75,4.61-22.45,5.77.83,5.18-.36,11.4-1.82,16.1-.96,3.09-2.3,6.06-3.98,8.83-.79,1.31-4.1,4.43-5.25,6.3-.71,15.57-1.22,30.88-1.43,32.83-2.4,18.26-3.46,36.69-6.15,54.91-20.35,4.68-63.11,3.78-63.11,3.78l8.73.9s.73,41.14,1.02,51.82c.11,0,.22,0,.34,0,1.21.15,2.08,1.25,1.93,2.46-.09.72-2.19,17.81-4.39,25.99-2.28,8.46-9.17,17.72-18.92,18.04-.17,0-.35,0-.52,0-4.21,0-8.12-1.67-11.09-3.14-23.91-11.87-39.41-38.76-37.68-65.4.45-6.94,3.05-11.61,7.33-13.13,5.39-1.92,10.72-.7,10.95-.65.53.12.96.43,1.26.84,1.96-9.39,3.93-19.53,5.57-28.82-2.74,1.97-5.58,3.79-8.53,5.44-20.29,11.39-46.68,16.94-57.09,37.75-4.82,9.63-5.09,20.89-4.19,31.63,1.6,19.02,6.56,37.57,11.49,56,4.87,18.18,9.91,36.77,20.62,52.25,10.71,15.48,28.37,27.51,47.16,26.28,29.05-1.9,46.72-31.97,58.94-58.4-21.1,120.75-33.97,244.1-45.05,366.08-3.28,36.13-9.17,71.99-12.05,108.16-10.12,100.26-16.84,200.87-23.98,301.37-3.73,52.47-7.39,104.94-11.27,157.4-1.68,22.68-3.38,45.36-5.21,68.03-.9,11.2.17,19.62,2.98,26.78l62.19,52.43c.09-.54.17-1.07.26-1.61,2.64-250.33,5.44-508.91,17-763.03,6.16-135.31,14.59-320.62,27.9-454.54.12-1.21,1.21-2.09,2.42-1.98,1.22.12,2.1,1.2,1.98,2.42-13.29,133.8-21.73,319.05-27.88,454.31-11.11,244.03-14.13,492.21-16.68,733.18.72-4.52,1.44-9.05,2.17-13.57,25.97-6.46,52.28-10.28,78.82-12.32-12.53-203.25-33.17-565.11-38.62-616.97-30.72-292.05,38.33-400.77,48.42-416.28Z"/>
  <path class="c" d="M62.38,534.58s-4.33-.96-8.46.51c-3.39,1.21-4.21,6.32-4.4,9.26-.63,9.79,1.23,19.6,5.06,28.6,0-2.85.8-5.66,2.06-8.86,1.44-3.67,4.31-15.57,7.32-29.74-.46.26-1.02.36-1.58.23Z"/>
  <path class="h" d="M74.99,1715.85c9.7,8.43,19.79,16.41,30.23,23.91.06-.39.12-.78.19-1.17l-54.95-46.32c5.82,7.6,14.12,14.54,24.53,23.58Z"/>
  <path class="h" d="M95.28,475.41l10.43,37.95s-5.41-20.08-10.09-38.51c-.11.19-.22.37-.34.56Z"/>
  <path class="h" d="M181.22,391.47c-.98.13-1.95.25-2.93.37-.22,1.95-.43,4.41-.64,7.22.22-2.03.65-4.02,1.77-5.66.51-.75,1.12-1.37,1.8-1.93Z"/>
  <path class="g" d="M102.13,405.03c.68-.29,1.35-.57,2.03-.85,1.13-.47,2.42.06,2.89,1.19.26.62.21,1.28-.07,1.84,1.35,7.1-.84,14.75-5.52,20.24.55-.14,1.09-.3,1.64-.43,1.21-.27,2.38.47,2.65,1.66.11.47.05.94-.13,1.36.77,5.25-1.14,10.79-4.73,14.7.64.19,1.18.67,1.43,1.34.02.04.02.09.03.13.48-.24.96-.48,1.42-.74,1.16,5.55.15,11.91-3.4,17.23.54.77.56,1.82-.04,2.61-1.66,2.17-3.57,4.17-5.64,5.99.3,1.18.6,2.37.9,3.58,4.69,18.44,10.09,38.51,10.09,38.51,0,0,42.76.9,63.11-3.78,2.68-18.22,3.74-36.65,6.15-54.91.22-1.96.72-17.27,1.43-32.83-.23.38-.38.71-.4.96.46-6.61.92-13.23,1.38-19.84.09-1.26.14-2.59.29-3.9.2-2.8.42-5.26.64-7.22.13-1.12.26-2.08.39-2.84-24.14,2.92-48.46,4.37-72.78,4.3.36,4.18-1.08,8.51-3.77,11.74Z"/>
  <path class="g" d="M83.87,392.67c-1.77-.15-3.53-.36-5.28-.64.13.82.27,1.63.4,2.45.97-.39,1.95-.76,2.91-1.11.66-.24,1.31-.46,1.97-.7Z"/>
  <path class="b" d="M308.17,770.46c-.16-27.54.07-55.15,1.29-82.7,0,0,0,0,0,0-1.28,24.14-1.84,51.58-1.28,82.7Z"/>
  <path class="d" d="M360.09,1246.46c-19.14-118.39-38.31-233.89-47.03-351.92-.06,0-.12,0-.17,0-1.13,0-2.09-.86-2.2-2.01-6.65-72.71-8.05-131.88-6.67-179.8-3.21.33-6.39.49-9.54.49-29.52,0-56.52-13.63-82.74-26.87-4.88-2.46-9.93-5.01-14.92-7.44-1.1-.53-1.56-1.86-1.02-2.95.53-1.1,1.86-1.56,2.96-1.02,5.02,2.44,10.09,5,14.98,7.47,29.93,15.11,58.22,29.38,90.42,25.86.15-4.44.32-8.78.51-13.02-15.24-7.44-31.54-15.83-47.31-23.95-15.96-8.22-32.47-16.72-47.84-24.21-2.36-1.15-4.98-2.44-7.51-4.01-10.08,15.51-79.14,124.22-48.42,416.28,5.45,51.86,26.09,413.72,38.62,616.97,4.4,71.33,7.8,123.13,9.19,135.13,8.09,1.32,17.32,2.04,27.28,2.34,37.38,1.1,85.03-3.9,121.5-6.58,7.75-.57,15.02-1.04,21.55-1.31-2.81-25.28-7.95-70.91-14.33-127.24-17.56-155.13-44.47-391.42-57.69-507.47-23.39-135.11-44.06-238.46-78.05-378.19-.29-1.19.44-2.38,1.62-2.67,1.19-.29,2.38.44,2.67,1.63,51.44,211.47,72.41,339.6,118.34,620.33,16.94,103.56,38.03,232.44,65.25,393.23.04.23.03.45,0,.67.78.19,2.39.35,4.68.48,18.74,1.07,83.53.34,121.78-.36,7.73-.14,14.38-.28,19.34-.41-1.65.04-8.94-40.92-19.46-104.51-43.79,13.59-89.25,25.61-97.77,27.69-26.01-160.88-52.01-321.75-78.02-482.63Z"/>
  <path class="c" d="M373.77,339.66c1.09.21,1.88,1.2,1.78,2.34-3.92,48.53-17.05,96.27-29.76,142.44-5.99,21.78-12.19,44.3-17.34,66.59-3.43,14.86-8.51,36.87-12.75,68.35,13.21-39.9,37.5-77.49,59.71-111.84,18.24-28.21,37.06-56.64,55.94-84.5-2.46-9.46-4.23-25.06-5.95-40.16-1.76-15.47-3.58-31.47-6.08-40.47-.19-.68-.03-1.37.36-1.9-16.68-12.73-42.2-31.36-43.74-28.96.3,2.07.54,4.16.68,6.29.5,7.38-1.19,14.69-2.87,21.83Z"/>
  <path class="f" d="M536.71,530.52c-8.81-24.31-17.7-48.67-31.11-70.68-11-18.05-16.88-39.02-28.5-57.16-12.09-18.88-26.73-36.12-43.38-51.14-.94-.85-4.51-3.69-9.42-7.5,2.23,9.56,3.89,24.16,5.51,38.33,1.76,15.47,3.58,31.47,6.08,40.47.17.63.06,1.3-.3,1.83-19.05,28.1-38.04,56.79-56.45,85.26-28.33,43.81-60.08,92.92-67.37,144.91-.89,9.99-1.66,20.69-2.27,32.14-.01.25-.02.51-.04.76-1.21,27.55-1.45,55.16-1.29,82.7.64,35.56,2.73,75.92,6.92,121.68.11,1.22-.78,2.29-2,2.4,0,0-.02,0-.03,0,8.71,118.03,27.89,233.52,47.03,351.92,26.01,160.88,52.01,321.75,78.02,482.63,8.53-2.07,53.99-14.1,97.77-27.69,45.66-14.17,89.5-30.04,87.73-38.12-35.32-162.55-70.64-325.1-105.96-487.65-23.69-109.02-52.33-230.74-95.43-333.64,30.99,30.1,64.56,24.17,90.74,10.89,21.7-11.01,36.22-32.59,45.64-55.03,11.23-26.78,16.28-54.79,16.94-83.3,1.43-61.43-17.5-125.2-38.82-184.02ZM381.66,617.24c-.8-3.7-1.63-7.52-2.22-11.33-3.09-20.05.21-40.14,3.4-59.56,1.51-9.2,1.73-15.94,1.91-21.89.39-12.47.66-20.71,12.41-37.14.71-1,2.09-1.22,3.08-.51.99.71,1.22,2.09.51,3.08-10.97,15.34-11.2,22.63-11.58,34.71-.19,6.08-.41,12.97-1.97,22.46-3.14,19.08-6.38,38.82-3.39,58.17.57,3.69,1.38,7.44,2.17,11.07,1.56,7.2,3.17,14.64,3.06,22.23-.26,18.61-10.77,35.29-19.9,47.74-2.06,2.82-4.18,5.6-6.31,8.4-8.06,10.59-16.39,21.54-21.24,33.91-5.16,13.16-6.86,33.05,5.33,45.8.84.88.81,2.28-.07,3.13-.43.41-.98.61-1.53.61-.58,0-1.16-.23-1.6-.68-13.63-14.26-11.89-36.1-6.26-50.47,5.08-12.95,13.6-24.14,21.84-34.97,2.11-2.77,4.21-5.54,6.26-8.33,8.74-11.92,18.81-27.84,19.05-45.19.1-7.09-1.39-13.96-2.96-21.23ZM439.35,845.16c-1.31.37-2.61.54-3.89.54-5.59,0-10.93-3.15-15.63-6.25-.19-.13-.35-.28-.48-.45-2.35,2.84-4.75,5.52-6.72,7.99-8.6,10.78-17.39,21.45-27.15,31.21-9.56,11.26-18.83,22.78-27.66,34.62,16.28,32.26,35.9,62.84,58.42,90.8.77.95.62,2.34-.34,3.11-.41.33-.9.49-1.38.49-.65,0-1.29-.28-1.72-.82-44.45-55.19-77.76-120.5-96.34-188.88-.32-1.18.38-2.39,1.55-2.71,1.19-.32,2.39.38,2.71,1.55,3.93,14.46,8.53,28.79,13.76,42.91,2.2-.91,3.86-3.09,5.25-5.14,16.64-24.56,32.36-49.75,47.12-75.49.92-1.6,1.87-3.24,3.05-4.64.66-.78,1.41-1.49,2.26-2.07,16.74-11.41,33.93,31.56,36.25,41.87.47,2.07.87,4.18.72,6.29-.37,5.48-3.43,10.71-7.1,15.54.08.04.16.07.24.12,4.96,3.27,10.69,6.63,15.87,5.15,7.12-2.03,9.3-11.91,8.31-20.22-.95-7.97-3.38-16.22-7.63-25.96-11.19-25.6-28.64-42.35-47.89-45.96-7.83-1.47-18.97-.48-24.63,7.12-3.73,5.01-4.56,12.49-2.23,20.01,2.19,7.05,6.59,13.3,10.86,19.35.7,1,.46,2.38-.53,3.08-1,.7-2.38.47-3.08-.53-4.46-6.33-9.07-12.87-11.47-20.59-2.75-8.86-1.66-17.82,2.91-23.96,6.86-9.22,19.48-10.61,28.99-8.83,20.71,3.88,39.35,21.57,51.13,48.53,4.43,10.15,6.97,18.79,7.97,27.21,1.25,10.46-1.82,22.24-11.49,25Z"/>
  <path class="b" d="M177.73,372.56c-.12-1.04.53-2.05,1.57-2.36.09-.03.18-.02.27-.04-.71-2.86-2.19-7.24-2.27-7.43-1.11-2.72-3.8-4.54-6.63-5.34-2.83-.8-5.82-.73-8.76-.65-7.88.21-15.76.43-23.63.64-4.65.13-9.3.25-13.95.38-8.8.24-17.6.48-26.4.72-5.76.16-12.64.97-15.25,6.12-1.5,2.95-1.23,6.64-.58,10.03,7.46,2.2,15.49,2.34,23.29,2.47,23.93.38,48.66.78,72.34-4.53Z"/>
  <path class="e" d="M181.22,391.47c-.68.56-1.29,1.18-1.8,1.93-1.12,1.64-1.55,3.63-1.77,5.66-.14,1.32-.2,2.65-.29,3.9-.46,6.61-.92,13.23-1.38,19.84.02-.25.17-.58.4-.96,1.15-1.88,4.46-5,5.25-6.3,1.68-2.77,3.02-5.74,3.98-8.83,1.46-4.71,2.65-10.92,1.82-16.1-.12-.75-.28-1.49-.49-2.19-.37.15-.73.31-1.1.46-1.06.45-2.13.92-3.11,1.52-.53.32-1.03.68-1.51,1.07Z"/>
  <path class="e" d="M79.46,417.11c6.93-5.28,14.87-8.8,22.67-12.08,2.69-3.23,4.13-7.56,3.77-11.74-.11-1.35-.4-2.68-.91-3.95-.09,0-.19.02-.28.03-.12.85-.73,1.59-1.61,1.83-6.41,1.75-13.03,3.88-19.68,6.32-4.61,1.69-9.39,3.62-12.75,7-4.86,4.88-6.91,12.72-6.08,23.29.07.94-.45,1.78-1.25,2.16.4,2.37.92,4.74,1.51,7.08,2.18-7.36,7.25-14.33,14.6-19.94Z"/>
  <path class="e" d="M74.09,457.65c7.93-5.26,16.48-9.59,25.4-12.89.47-.17.96-.17,1.41-.03,3.6-3.91,5.51-9.44,4.73-14.7-.27.63-.82,1.13-1.54,1.29-10.16,2.33-19.82,7.02-27.93,13.57-1.68,1.36-2.98,2.56-3.84,3.99-.86,1.44-1.12,3.01-.7,4.21.41,1.15-.2,2.41-1.35,2.82-.08.03-.16.02-.24.04.37,1.35.74,2.7,1.12,4.04.89-.94,1.94-1.69,2.95-2.36Z"/>
  <path class="e" d="M73.39,441.46c8.19-6.61,17.87-11.42,28.08-14.01,4.69-5.49,6.87-13.14,5.52-20.24-.23.46-.61.84-1.12,1.06-8.18,3.43-16.65,6.97-23.72,12.37-7.71,5.88-12.61,13.32-13.79,20.94-.15.95-.9,1.64-1.8,1.8.43,1.54.85,3.09,1.28,4.63.2-.47.42-.93.69-1.38,1.27-2.12,3.08-3.73,4.86-5.16Z"/>
  <path class="e" d="M65.03,532.93c-.15.63-.55,1.12-1.07,1.41-3.01,14.17-5.87,26.07-7.32,29.74-1.26,3.2-2.06,6-2.06,8.86,5.93,13.9,16.6,25.82,30.17,32.55,2.63,1.3,6.09,2.78,9.5,2.67,7.5-.25,12.92-7.83,14.79-14.78,2.12-7.87,4.25-25.2,4.27-25.38.14-1.1,1.05-1.9,2.13-1.93-.29-10.68-1.02-51.82-1.02-51.82l-8.73-.9-10.43-37.95-1.02-3.72c-3.96,3.38-8.54,6.06-13.42,7.78-.24.09-.49.13-.74.13-.91,0-1.76-.57-2.08-1.48-.41-1.15.2-2.41,1.35-2.82,6.85-2.42,13.05-6.93,17.47-12.7.74-.97,2.13-1.15,3.1-.41.18.14.33.31.45.49,3.55-5.32,4.56-11.67,3.4-17.23-.46.27-.95.5-1.42.74.34,1.11-.24,2.3-1.34,2.71-8.6,3.18-16.84,7.36-24.49,12.43-1.29.86-2.59,1.79-2.97,2.92-.17.5-.51.89-.93,1.15.46,1.65.91,3.31,1.37,4.96.82,2.95-1.01,16.21-3.79,31.91-1.64,9.29-3.62,19.44-5.57,28.82.38.51.54,1.16.39,1.82Z"/>
  <path class="g" d="M233.31,410.06l-1.72,1.84c-11.94,12.76-24.3,25.96-31.24,41.9-6.45,14.81-7.94,31.63-4.2,47.34,1.15,4.82,2.81,9.66,4.42,14.33,2.2,6.38,4.48,12.99,5.56,19.85,2.6,16.46-1.78,32.75-6.01,48.5-2.57,9.56-5.22,19.44-6.27,29.22-.97,9.04.1,15.4,3.35,20.03,3.36,4.77,9.13,7.58,14.23,10.06,15.42,7.51,31.95,16.02,47.93,24.25,15.16,7.81,30.8,15.86,45.52,23.07.33-6.58.71-12.94,1.13-19.05-.07-.24-.12-.48-.11-.74.21-5.47.71-10.91,1.46-16.31,4.57-51.38,12.16-84.29,16.78-104.29,5.17-22.39,11.37-44.95,17.38-66.77,12.41-45.08,25.2-91.66,29.36-138.83-.25.19-.5.37-.76.55-4.55,3.26-9.16,6.55-14.32,8.72-5.1,2.14-10.6,3.13-16.1,3.7-9.01.93-18.29.76-26.89-2.09-8.3-2.75-15.92-8.23-20.06-15.9l-.17.21c-23.97,31.01-31.2,40.37-59.29,70.43Z"/>
  <path class="g" d="M249.1,386.29c6.46-7.26,11.77-13.52,17.27-20.33-5.76,6.78-11.52,13.55-17.27,20.33Z"/>
  <path class="e" d="M419.2,836.39c.62-.94,1.84-1.24,2.82-.75,3.67-4.83,6.72-10.06,7.1-15.54.14-2.11-.26-4.23-.72-6.29-2.32-10.31-19.51-53.28-36.25-41.87-.85.58-1.6,1.29-2.26,2.07-1.19,1.4-2.14,3.04-3.05,4.64-14.76,25.74-30.48,50.92-47.12,75.49-1.39,2.05-3.05,4.23-5.25,5.14,6.75,18.25,14.56,36.15,23.35,53.56,8.83-11.84,18.1-23.36,27.66-34.62,9.76-9.76,18.56-20.43,27.15-31.21,1.97-2.47,4.37-5.15,6.72-7.99-.6-.73-.69-1.78-.15-2.61Z"/>
  <path class="e" d="M295.42,334.04c.33.72.27,1.6-.25,2.28l-2.4,3.1c4.14,7.67,11.77,13.15,20.06,15.9,8.6,2.85,17.88,3.03,26.89,2.09,5.5-.57,11-1.56,16.1-3.7,5.16-2.17,9.77-5.46,14.32-8.72.25-.18.51-.36.76-.55.08-.93.18-1.86.26-2.8.1-1.22,1.16-2.12,2.38-2.03.08,0,.16.03.24.04,1.68-7.14,3.37-14.45,2.87-21.83-.14-2.13-.38-4.22-.68-6.29-.71-4.92-1.81-9.72-3.06-14.66-8.11-31.92-12.5-64.79-13.06-97.72-1.03.3-2.13.51-3.28.51-.68,0-1.37-.07-2.07-.24-3.14-.77-5.94-3.94-5.09-7.45.29-1.19,1.48-1.92,2.67-1.63,1.19.29,1.92,1.48,1.63,2.67-.19.76.76,1.84,1.84,2.11,1.6.39,3.5-.28,4.97-.91,14.24-6.05,23.35-22.74,20.74-37.99-.47-2.77-1.22-5.02-2.26-6.88-3-5.33-9.66-8.5-15.82-7.52-6.09.96-11.51,5.86-13.2,11.92-.33,1.18-1.54,1.86-2.72,1.54-1.18-.33-1.86-1.55-1.54-2.72.27-.95.6-1.88,1-2.77-9.66-1.57-33.94-7.21-36.48-8-13.57-4.22-26.56-10.52-37.69-19.42-5.49-4.4-10.5-9.39-16.27-13.42-13.63-9.52-30.67-13-47.33-13.15-2.19,4.54-2.91,8.2-3.11,10.55-.05.55-.3,1.03-.67,1.39-.02,1.14-.04,2.28-.09,3.43-.31,7.42.19,14.94,2.29,22.07,2.16,7.33,5.94,14.07,8.83,21.14.36.89.7,1.79,1.03,2.68,1.52-.69,3.18-1.09,4.86-1.13,1.24-.06,2.23.94,2.26,2.16.03,1.22-.94,2.23-2.16,2.26-1.21.03-2.41.38-3.5.95,2.85,8.89,4.53,17.97,6.76,26.97.65-.6,1.63-.78,2.47-.36.44.22,1.06.17,1.63-.12.57-.29.97-.77,1.05-1.25.21-1.2,1.34-2.01,2.55-1.8,1.2.21,2.01,1.35,1.8,2.56-.32,1.85-1.59,3.51-3.4,4.43-.96.49-1.99.73-3,.73-.74,0-1.46-.17-2.13-.43,1.38,5.13,3.01,10.22,5.23,15.21,7.61,17.1,18.07,32.93,30.85,46.6,1.05,1.12,2.15,2.25,3.38,3.16.59-.79,1.66-1.12,2.61-.72,3.79,1.57,8.29.69,12.18-.37,4.09-1.12,8.08-2.58,11.94-4.32.32-.15.65-.29.97-.44,17.29-8.06,31.8-22.07,40.17-39.24.53-1.1,1.86-1.56,2.96-1.02,1.1.53,1.55,1.86,1.02,2.96-5.51,11.32-13.57,21.33-23.28,29.32.86,15.7.34,31.33-2.49,46.91-1.56,8.7-4,17.21-6.9,25.54-.03.08-.06.17-.09.25-2.2,6.3-5.78,12.45-9.56,18.16ZM250.75,155.21c3.87-5.94,11.2-9.47,18.26-8.78,1.21.12,2.1,1.2,1.99,2.41-.12,1.22-1.2,2.09-2.41,1.99-5.47-.54-11.14,2.2-14.13,6.8-.42.65-1.13,1-1.85,1-.41,0-.83-.12-1.2-.36-1.02-.67-1.31-2.04-.65-3.06ZM241.29,216.12c-2.97-.05-3.88-1.75-4.14-2.47-.38-1.08-.11-2.05.05-2.62,2.87-10.51,1.87-22.21-2.74-32.08-.52-1.11-.04-2.42,1.07-2.94,1.1-.52,2.42-.04,2.94,1.07,4.98,10.66,6.11,23.25,3.13,34.64h.02c3.34,0,6.69-1.22,9.23-3.37.93-.79,2.33-.67,3.12.26.79.93.67,2.33-.26,3.12-3.34,2.82-7.72,4.42-12.09,4.42-.11,0-.21,0-.32,0ZM269.41,226.85c-4.84,5.45-11.95,8.61-19.22,8.61-.42,0-.84-.01-1.26-.03-1.22-.06-2.16-1.1-2.1-2.32s1.07-2.16,2.32-2.1c6.26.31,12.78-2.4,16.95-7.1.81-.91,2.21-.99,3.12-.18.91.81.99,2.21.18,3.12ZM284.21,173.51c-3.11,4.64-8.58,7.43-14.11,7.43-1.19,0-2.38-.13-3.55-.39-1.19-.27-1.94-1.46-1.67-2.65.27-1.19,1.45-1.94,2.65-1.67,4.8,1.09,10.27-1.09,13.01-5.18.68-1.01,2.06-1.28,3.07-.61,1.01.68,1.29,2.05.61,3.07ZM364.78,151c1.03-.64,2.4-.33,3.04.71.64,1.04.33,2.4-.71,3.04-4.59,2.85-8.3,6.97-10.78,11.73,4.43-1.84,9.17-2.6,14.16-2.2,1.22.1,2.12,1.16,2.03,2.38-.1,1.22-1.14,2.13-2.38,2.03-5.85-.47-11.3.9-16.22,4.02-.52,1.94-.86,3.94-.97,5.95-.07,1.18-1.04,2.09-2.21,2.09-.04,0-.08,0-.12,0-1.22-.07-2.15-1.11-2.09-2.33.61-11.07,6.83-21.57,16.25-27.42Z"/>
  <path class="i" d="M359.97,1986.53c-22.22-.94-44.5-1.38-66.54-4.75.59-.2,1.1-.65,1.34-1.27,5.43-13.86,19.08-20.94,33.54-28.43,4.99-2.59,10.15-5.26,14.89-8.22,16.97-10.61,34.33-23.1,43.7-48.46.39-1.06-.08-2.21-1.06-2.72-.08-.04-.16-.09-.25-.12-1.14-.42-2.42.16-2.84,1.31-2,5.41-4.4,10.17-7.1,14.47-9.29,14.85-22.15,23.86-34.8,31.77-4.59,2.87-9.67,5.5-14.58,8.05-14.55,7.54-29.58,15.33-35.62,30.74-.41,1.05.05,2.23,1.02,2.75-.38.36-.7.74-.98,1.15-38.76,2.54-77.5,4.78-116.66,3.74-22.78-.96-45.62-1.38-68.2-4.98-5.02,4.54-1.58,13.85-1.9,20.26,15.43,1.7,30.97,1.94,46.48,2.56,75.95.61,151.76.7,227.73.27,64.18.36,128.3.37,192.54-.03.83,0,1.78-.06,2.3-.71.5-.62.39-1.52.25-2.3-1.38-7.99-2.77-15.97-4.15-23.96-19.63.59-39.16,1.7-58.66,2.94-50.09,3.19-99.93,7.3-150.46,5.96Z"/>
  <path class="i" d="M134.4,311.55c-4.54.16-9.07.34-13.59.52.68,15.26,2.43,30.47,3.52,45.7,4.65-.13,9.3-.25,13.95-.38-1.43-15.28-2.5-30.57-3.87-45.84Z"/>
  <path class="i" d="M337.73,213.86c.53-1.1.08-2.42-1.02-2.96-1.1-.54-2.42-.08-2.96,1.02-8.36,17.17-22.88,31.18-40.17,39.24-.32.15-.65.3-.97.44-3.86,1.74-7.85,3.2-11.94,4.32-3.89,1.06-8.39,1.94-12.18.37-.95-.4-2.02-.07-2.61.72-.11.14-.21.3-.28.47-.47,1.13.07,2.42,1.2,2.89,2.07.86,4.24,1.18,6.38,1.18,3.08,0,6.09-.67,8.66-1.37,11.93-3.26,23.07-9.16,32.61-17.01,9.72-7.99,17.77-18,23.28-29.32Z"/>
  <path class="i" d="M347.24,155.3c1.18.33,2.4-.36,2.72-1.54,1.69-6.06,7.11-10.96,13.2-11.92,6.16-.98,12.82,2.19,15.82,7.52,1.05,1.86,1.79,4.11,2.26,6.88,2.61,15.25-6.5,31.94-20.74,37.99-1.48.63-3.38,1.3-4.97.91-1.08-.26-2.03-1.35-1.84-2.11.29-1.19-.44-2.38-1.63-2.67-1.19-.29-2.38.44-2.67,1.63-.85,3.5,1.95,6.68,5.09,7.45.7.17,1.39.24,2.07.24,1.15,0,2.25-.22,3.28-.51.86-.25,1.68-.56,2.4-.87,16.05-6.82,26.31-25.62,23.37-42.81-.56-3.28-1.47-5.99-2.77-8.3-3.94-6.99-12.3-10.99-20.36-9.72-6.9,1.09-12.94,5.9-15.78,12.33-.4.9-.73,1.82-1,2.77-.33,1.18.36,2.39,1.54,2.72Z"/>
  <path class="i" d="M350.62,180.75s.08,0,.12,0c1.17,0,2.14-.91,2.21-2.09.11-2.02.45-4.01.97-5.95,4.92-3.12,10.37-4.49,16.22-4.02,1.24.1,2.28-.81,2.38-2.03.1-1.22-.81-2.28-2.03-2.38-4.99-.4-9.73.36-14.16,2.2,2.48-4.76,6.2-8.88,10.78-11.73,1.04-.64,1.36-2.01.71-3.04-.65-1.04-2.01-1.35-3.04-.71-9.42,5.85-15.64,16.36-16.25,27.42-.07,1.22.87,2.26,2.09,2.33Z"/>
  <path class="i" d="M105.31,381.52c6.29.1,12.62.2,18.99.2,18.41,0,37.04-.85,55.2-5.03.72-.17,2.22-.51,3.07-1.92.3-.5.42-1.08.41-1.66-.02-.67-.23-1.35-.66-1.91-.67-.86-1.72-1.24-2.74-1.04-.09.02-.18.01-.27.04-1.04.31-1.69,1.31-1.57,2.36-23.68,5.31-48.42,4.92-72.34,4.53-7.8-.12-15.82-.27-23.29-2.47-.85-.25-1.69-.51-2.52-.81-1.15-.42-2.42.16-2.84,1.31-.41,1.12.14,2.35,1.23,2.8.03.01.05.03.08.04,8.86,3.26,18.64,3.41,27.26,3.55Z"/>
  <path class="i" d="M320.71,816.35c-.32-1.18-1.53-1.87-2.71-1.55-1.18.32-1.87,1.54-1.55,2.71,18.58,68.38,51.9,133.69,96.34,188.88.44.54,1.08.82,1.72.82.49,0,.98-.16,1.38-.49.95-.77,1.1-2.16.34-3.11-22.51-27.96-42.14-58.54-58.42-90.8-8.78-17.41-16.59-35.31-23.35-53.56-5.23-14.12-9.83-28.44-13.76-42.91Z"/>
  <path class="i" d="M442.87,792.95c-11.78-26.97-30.42-44.66-51.13-48.53-9.51-1.78-22.13-.4-28.99,8.83-4.57,6.14-5.66,15.1-2.91,23.96,2.39,7.72,7.01,14.26,11.47,20.59.7,1,2.08,1.24,3.08.53,1-.7,1.24-2.08.53-3.08-4.26-6.05-8.67-12.3-10.86-19.35-2.33-7.52-1.5-15,2.23-20.01,5.65-7.6,16.79-8.59,24.63-7.12,19.25,3.6,36.71,20.35,47.89,45.96,4.26,9.74,6.68,17.99,7.63,25.96.99,8.31-1.19,18.19-8.31,20.22-5.19,1.48-10.92-1.88-15.87-5.15-.08-.05-.16-.09-.24-.12-.98-.49-2.2-.19-2.82.75-.55.83-.45,1.88.15,2.61.14.17.29.32.48.45,4.7,3.1,10.04,6.25,15.63,6.25,1.29,0,2.59-.17,3.89-.54,9.67-2.76,12.74-14.54,11.49-25-1-8.41-3.53-17.06-7.97-27.21Z"/>
  <path class="i" d="M359.32,692c-8.24,10.83-16.76,22.03-21.84,34.97-5.64,14.37-7.38,36.21,6.26,50.47.43.45,1.01.68,1.6.68.55,0,1.1-.2,1.53-.61.88-.84.91-2.24.07-3.13-12.19-12.76-10.49-32.65-5.33-45.8,4.85-12.37,13.18-23.32,21.24-33.91,2.12-2.79,4.25-5.58,6.31-8.4,9.13-12.45,19.64-29.14,19.9-47.74.1-7.59-1.51-15.03-3.06-22.23-.79-3.63-1.6-7.39-2.17-11.07-2.98-19.36.26-39.09,3.39-58.17,1.56-9.49,1.78-16.38,1.97-22.46.38-12.08.61-19.37,11.58-34.71.71-.99.48-2.37-.51-3.08-.99-.71-2.37-.48-3.08.51-11.75,16.43-12.01,24.67-12.41,37.14-.19,5.95-.4,12.68-1.91,21.89-3.19,19.42-6.49,39.51-3.4,59.56.59,3.82,1.42,7.64,2.22,11.33,1.58,7.28,3.06,14.15,2.96,21.23-.24,17.36-10.31,33.27-19.05,45.19-2.05,2.79-4.15,5.56-6.26,8.33Z"/>
  <path class="i" d="M383.99,1680.22c6.62,39.68,13.67,81.65,21.19,126.06.18,1.08,1.12,1.84,2.18,1.84.12,0,.25-.01.37-.03.98-.17,1.68-.95,1.81-1.88.03-.22.04-.44,0-.67-27.22-160.79-48.31-289.67-65.25-393.23-45.94-280.74-66.9-408.87-118.34-620.33-.29-1.19-1.48-1.92-2.67-1.63-1.19.29-1.91,1.48-1.62,2.67,33.99,139.73,54.67,243.07,78.05,378.19,11.98,69.21,24.67,146.76,40.22,241.81,12.26,74.96,26.7,163.2,44.06,267.2Z"/>
  <path class="i" d="M155.78,514.75c.12-1.22-.77-2.3-1.98-2.42-1.21-.11-2.3.77-2.42,1.98-13.3,133.92-21.74,319.23-27.9,454.54-11.57,254.13-14.37,512.71-17,763.03,0,.6-.01,1.21-.02,1.81l-.24-.2-62.19-52.43-5.33-4.49c-.93-.79-2.33-.67-3.11.27-.79.93-.67,2.33.26,3.12l14.61,12.31,54.95,46.32,1.79,1.51c.4.33.89.5,1.39.5.32,0,.65-.07.96-.21.78-.36,1.28-1.16,1.29-2.01.13-12.02.25-24.08.38-36.14,2.56-240.98,5.58-489.16,16.68-733.18,6.16-135.26,14.59-320.5,27.88-454.31Z"/>
  <path class="i" d="M113.33,568.02c-.02.17-2.15,17.5-4.27,25.38-1.87,6.94-7.3,14.53-14.79,14.78-3.42.11-6.87-1.37-9.5-2.67-13.58-6.74-24.24-18.66-30.17-32.55-3.84-8.99-5.7-18.81-5.06-28.6.19-2.94,1.01-8.05,4.4-9.26,4.13-1.47,8.42-.52,8.46-.51.56.13,1.12.03,1.58-.23.52-.29.92-.79,1.07-1.41.16-.66-.01-1.32-.39-1.82-.3-.4-.73-.71-1.26-.84-.23-.05-5.56-1.27-10.95.65-4.28,1.53-6.88,6.19-7.33,13.13-1.73,26.64,13.77,53.53,37.68,65.4,2.97,1.47,6.89,3.14,11.09,3.14.17,0,.35,0,.52,0,9.74-.32,16.64-9.58,18.92-18.04,2.2-8.17,4.31-25.27,4.39-25.99.15-1.21-.72-2.31-1.93-2.46-.11-.01-.23-.01-.34,0-1.07.03-1.99.84-2.13,1.93Z"/>
  <path class="i" d="M253.97,208.59c-.79-.93-2.18-1.05-3.12-.26-2.55,2.15-5.9,3.37-9.23,3.37h-.02c2.98-11.38,1.85-23.98-3.13-34.64-.52-1.11-1.84-1.58-2.94-1.07-1.11.52-1.58,1.83-1.07,2.94,4.62,9.88,5.61,21.57,2.74,32.08-.16.58-.43,1.55-.05,2.62.25.73,1.17,2.42,4.14,2.47.11,0,.21,0,.32,0,4.37,0,8.75-1.6,12.09-4.42.93-.79,1.05-2.18.26-3.12Z"/>
  <path class="i" d="M231.54,191.74c1.81-.92,3.08-2.58,3.4-4.43.21-1.2-.6-2.35-1.8-2.56-1.21-.21-2.35.6-2.55,1.8-.08.48-.49.96-1.05,1.25-.56.29-1.19.33-1.63.12-.84-.42-1.82-.24-2.47.36-.19.18-.36.39-.49.64-.54,1.1-.09,2.42,1.01,2.96.14.07.3.1.45.16.68.26,1.39.43,2.13.43,1.01,0,2.05-.24,3-.73Z"/>
  <path class="i" d="M283.6,170.44c-1.01-.68-2.39-.41-3.07.61-2.74,4.09-8.2,6.27-13.01,5.18-1.2-.27-2.37.48-2.65,1.67-.27,1.19.48,2.38,1.67,2.65,1.17.27,2.36.39,3.55.39,5.53,0,11-2.78,14.11-7.43.68-1.01.41-2.39-.61-3.07Z"/>
  <path class="i" d="M251.39,158.27c.37.24.79.36,1.2.36.72,0,1.43-.35,1.85-1,2.99-4.6,8.66-7.34,14.13-6.8,1.21.1,2.3-.77,2.41-1.99.12-1.22-.77-2.3-1.99-2.41-7.07-.69-14.4,2.84-18.26,8.78-.67,1.02-.38,2.39.65,3.06Z"/>
  <path class="i" d="M224.34,158.11c-.03-1.22-1.02-2.22-2.26-2.16-1.68.04-3.34.43-4.86,1.13-1.42.64-2.72,1.54-3.8,2.67-.85.88-.82,2.28.06,3.13.43.41.98.62,1.53.62s1.16-.23,1.59-.68c.59-.62,1.31-1.1,2.08-1.5,1.09-.56,2.29-.92,3.5-.95,1.22-.03,2.19-1.04,2.16-2.26Z"/>
  <path class="i" d="M266.1,223.92c-4.18,4.7-10.69,7.42-16.95,7.1-1.25-.06-2.26.88-2.32,2.1s.88,2.26,2.1,2.32c.42.02.84.03,1.26.03,7.27,0,14.38-3.17,19.22-8.61.81-.91.73-2.31-.18-3.12-.91-.81-2.31-.73-3.12.18Z"/>
  <path class="i" d="M419.34,342.41c2.5,9,4.32,25,6.08,40.47,1.72,15.1,3.49,30.7,5.95,40.16-18.88,27.86-37.7,56.29-55.94,84.5-22.22,34.35-46.51,71.94-59.71,111.84,4.25-31.48,9.32-53.49,12.75-68.35,5.14-22.3,11.34-44.82,17.34-66.59,12.71-46.17,25.84-93.91,29.76-142.44.09-1.13-.69-2.13-1.78-2.34-.08-.02-.16-.04-.24-.04-1.22-.1-2.28.81-2.38,2.03-.07.93-.18,1.86-.26,2.8-4.15,47.16-16.95,93.75-29.36,138.83-6.01,21.82-12.22,44.39-17.38,66.77-4.61,20-12.2,52.91-16.78,104.29-.75,5.4-1.25,10.84-1.46,16.31,0,.26.03.51.11.74-.43,6.11-.8,12.47-1.13,19.05-14.71-7.21-30.35-15.26-45.52-23.07-15.98-8.23-32.51-16.74-47.93-24.25-5.1-2.48-10.87-5.3-14.23-10.06-3.25-4.62-4.32-10.99-3.35-20.03,1.05-9.78,3.7-19.66,6.27-29.22,4.23-15.75,8.61-32.04,6.01-48.5-1.08-6.87-3.36-13.47-5.56-19.85-1.61-4.67-3.28-9.5-4.42-14.33-3.74-15.72-2.25-32.53,4.2-47.34,6.94-15.94,19.3-29.14,31.24-41.9l1.72-1.84c28.09-30.05,35.32-39.41,59.29-70.43l.17-.21,2.4-3.1c.52-.68.58-1.55.25-2.28-.14-.31-.35-.6-.65-.82-.96-.75-2.36-.57-3.1.4l-2.56,3.32c-9.4,12.16-16.22,20.98-22.73,29.03-5.51,6.81-10.81,13.07-17.27,20.33-5.3,5.95-11.38,12.58-19.01,20.75l-1.72,1.83c-12.2,13.04-24.82,26.52-32.07,43.15-6.83,15.69-8.41,33.49-4.45,50.13,1.2,5.03,2.9,9.97,4.55,14.74,2.14,6.2,4.35,12.62,5.37,19.1,2.45,15.53-1.61,30.66-5.91,46.66-2.61,9.72-5.31,19.78-6.39,29.9-1.09,10.17.23,17.49,4.14,23.04,2.22,3.16,5.25,5.54,8.4,7.48,2.53,1.57,5.15,2.86,7.51,4.01,15.38,7.49,31.88,15.99,47.84,24.21,15.77,8.12,32.07,16.51,47.31,23.95-.19,4.24-.36,8.59-.51,13.02-32.2,3.52-60.49-10.75-90.42-25.86-4.9-2.47-9.96-5.03-14.98-7.47-1.1-.53-2.42-.08-2.96,1.02-.53,1.1-.07,2.42,1.02,2.95,4.99,2.43,10.04,4.97,14.92,7.44,26.22,13.23,53.22,26.87,82.74,26.87,3.15,0,6.33-.17,9.54-.49-1.38,47.92.02,107.08,6.67,179.8.11,1.15,1.07,2.01,2.2,2.01.06,0,.12,0,.17,0,.01,0,.02,0,.03,0,1.22-.11,2.11-1.19,2-2.4-4.19-45.76-6.28-86.12-6.92-121.68-.56-31.12,0-58.57,1.28-82.7.01-.26.03-.51.04-.76.61-11.44,1.39-22.14,2.27-32.14,7.28-52,39.04-101.11,67.37-144.91,18.41-28.47,37.4-57.15,56.45-85.26.37-.54.48-1.21.3-1.83-2.5-9-4.32-25-6.08-40.47-1.61-14.17-3.28-28.77-5.51-38.33-.23-.99-.47-1.95-.71-2.82-.33-1.18-1.54-1.86-2.72-1.54-.49.14-.89.44-1.18.82-.39.53-.55,1.22-.36,1.9Z"/>
  <path class="i" d="M208.93,95.81c7.58-15.74,32.82-42.17,115.48-62.54,1.19-.29,1.91-1.49,1.62-2.68-.29-1.18-1.49-1.91-2.67-1.62-109.38,26.95-120.98,65.76-121.94,77.01-.1,1.22.8,2.29,2.02,2.39.06,0,.13,0,.19,0,.59,0,1.13-.24,1.53-.64.37-.36.62-.84.67-1.39.2-2.35.92-6.01,3.11-10.55Z"/>
  <path class="i" d="M64.6,427.8c-.82-10.57,1.22-18.41,6.08-23.29,3.36-3.38,8.14-5.31,12.75-7,6.65-2.44,13.27-4.56,19.68-6.32.88-.24,1.49-.98,1.61-1.83.04-.29.03-.59-.06-.89-.32-1.18-1.54-1.87-2.72-1.55-5.89,1.61-11.96,3.55-18.07,5.73-.66.24-1.31.46-1.97.7-.97.35-1.94.73-2.91,1.11-4.13,1.64-8.21,3.66-11.45,6.92-5.81,5.84-8.28,14.84-7.35,26.75.09,1.16,1.06,2.04,2.2,2.04.06,0,.12,0,.18,0,.28-.02.54-.1.78-.22.8-.38,1.32-1.22,1.25-2.16Z"/>
  <path class="i" d="M68.36,441.57c1.18-7.62,6.08-15.06,13.79-20.94,7.08-5.4,15.54-8.94,23.72-12.37.51-.21.89-.6,1.12-1.06.28-.56.33-1.22.07-1.84-.47-1.12-1.76-1.66-2.89-1.19-.67.28-1.35.57-2.03.85-7.8,3.28-15.74,6.79-22.67,12.08-7.35,5.61-12.42,12.58-14.6,19.94-.38,1.27-.68,2.56-.88,3.85-.19,1.21.64,2.34,1.85,2.52.11.02.23.03.34.03.13,0,.26-.05.39-.07.9-.16,1.65-.85,1.8-1.8Z"/>
  <path class="i" d="M71.62,453.11c-.42-1.2-.16-2.78.7-4.21.86-1.44,2.16-2.64,3.84-3.99,8.11-6.55,17.77-11.24,27.93-13.57.72-.16,1.27-.66,1.54-1.29.18-.41.23-.88.13-1.36-.27-1.19-1.44-1.93-2.65-1.66-.55.13-1.1.29-1.64.43-10.21,2.6-19.89,7.4-28.08,14.01-1.77,1.43-3.59,3.05-4.86,5.16-.27.45-.49.91-.69,1.38-.94,2.21-1.1,4.54-.38,6.57.32.91,1.17,1.48,2.09,1.48.16,0,.33-.05.49-.09.08-.02.16-.01.24-.04,1.15-.41,1.76-1.67,1.35-2.82Z"/>
  <path class="i" d="M73.57,464.26c.38-1.13,1.68-2.06,2.97-2.92,7.65-5.07,15.89-9.25,24.49-12.43,1.1-.41,1.68-1.6,1.34-2.71-.01-.04-.02-.09-.03-.13-.25-.67-.8-1.14-1.43-1.34-.45-.14-.94-.14-1.41.03-8.92,3.3-17.47,7.63-25.4,12.89-1,.66-2.05,1.42-2.95,2.36-.75.79-1.39,1.71-1.77,2.83-.39,1.16.23,2.41,1.39,2.8.23.08.47.12.71.12.42,0,.82-.13,1.16-.35.42-.26.76-.65.93-1.15Z"/>
  <path class="i" d="M100.35,465.29c.6-.79.58-1.84.04-2.61-.13-.18-.27-.35-.45-.49-.97-.74-2.36-.56-3.1.41-4.42,5.77-10.62,10.28-17.47,12.7-1.15.41-1.76,1.67-1.35,2.82.32.91,1.17,1.48,2.08,1.48.24,0,.49-.04.74-.13,4.88-1.72,9.46-4.4,13.42-7.78.16-.13.3-.28.46-.41,2.07-1.82,3.97-3.81,5.64-5.99Z"/>
</svg>