<?xml version="1.0" encoding="UTF-8"?>
<svg id="Ebene_2" data-name="Ebene 2" xmlns="http://www.w3.org/2000/svg" viewBox="0 0 32 31.77">
  <defs>
    <style>
      .cls-1 {
        fill: #2c92d1;
      }
    </style>
  </defs>
  <g id="Ebene_2-2" data-name="Ebene 2">
    <g>
      <polygon class="cls-1" points="12.74 15.95 12.59 4.15 21.18 25.73 21.15 25.79 18.73 23.65 13.62 29.34 3.87 2.89 12.74 15.95"/>
      <polygon class="cls-1" points="29.76 8.96 22.53 16.37 18.43 5.55 29.76 8.96"/>
      <path class="cls-1" d="M14.13,4.24l2.53.76.09.1,9.29,24.3c.04.18-.21.33-.33.45l-1.88-1.65-.32-.38L14.13,4.24Z"/>
      <polygon class="cls-1" points="0 0 1.33 .37 1.44 .45 12.57 30.6 11.55 31.77 0 0"/>
      <polygon class="cls-1" points="11.15 3.31 11.27 11.24 4.57 1.38 11.15 3.31"/>
      <path class="cls-1" d="M27.1,28.27l-3.36-8.82,6.15,5.86c-.76.82-1.49,1.68-2.26,2.49-.07.07-.47.51-.54.47Z"/>
      <path class="cls-1" d="M32,9.61l-7.27,7.82,6.6,6.27s.02.06,0,.09c-.01.02-.31.36-.35.4-.03.03-.05.08-.11.07l-7.26-6.92,7.67-7.86.72.14Z"/>
    </g>
  </g>
</svg>